<svg width="28" height="28" viewBox="0 0 28 28" fill="none" xmlns="http://www.w3.org/2000/svg">
<path d="M14 0.666672C6.63999 0.666672 0.666656 6.64001 0.666656 14C0.666656 21.36 6.63999 27.3333 14 27.3333C21.36 27.3333 27.3333 21.36 27.3333 14C27.3333 6.64001 21.36 0.666672 14 0.666672ZM14 4.66667C16.2133 4.66667 18 6.45334 18 8.66667C18 10.88 16.2133 12.6667 14 12.6667C11.7867 12.6667 9.99999 10.88 9.99999 8.66667C9.99999 6.45334 11.7867 4.66667 14 4.66667ZM14 23.6C10.6667 23.6 7.71999 21.8933 5.99999 19.3067C6.03999 16.6533 11.3333 15.2 14 15.2C16.6533 15.2 21.96 16.6533 22 19.3067C20.28 21.8933 17.3333 23.6 14 23.6Z" fill="#71717A"/>
</svg>
