<svg width="32" height="32" viewBox="0 0 32 32" fill="none" xmlns="http://www.w3.org/2000/svg">
<path d="M16.0001 2.66663C8.64008 2.66663 2.66675 8.63996 2.66675 16C2.66675 23.36 8.64008 29.3333 16.0001 29.3333C23.3601 29.3333 29.3334 23.36 29.3334 16C29.3334 8.63996 23.3601 2.66663 16.0001 2.66663ZM16.0001 6.66663C18.2134 6.66663 20.0001 8.45329 20.0001 10.6666C20.0001 12.88 18.2134 14.6666 16.0001 14.6666C13.7867 14.6666 12.0001 12.88 12.0001 10.6666C12.0001 8.45329 13.7867 6.66663 16.0001 6.66663ZM16.0001 25.6C12.6667 25.6 9.72008 23.8933 8.00008 21.3066C8.04008 18.6533 13.3334 17.2 16.0001 17.2C18.6534 17.2 23.9601 18.6533 24.0001 21.3066C22.2801 23.8933 19.3334 25.6 16.0001 25.6Z" fill="url(#paint0_radial_2217_5417)"/>
<defs>
<radialGradient id="paint0_radial_2217_5417" cx="0" cy="0" r="1" gradientUnits="userSpaceOnUse" gradientTransform="translate(22.7102 23.0748) rotate(-114.675) scale(28.9471 23.2928)">
<stop stop-color="#EBEDFF"/>
<stop offset="0.786458" stop-color="#FFF2E3"/>
<stop offset="1" stop-color="#FEFDF8"/>
</radialGradient>
</defs>
</svg>
