<svg width="32" height="32" viewBox="0 0 32 32" fill="none" xmlns="http://www.w3.org/2000/svg">
<path d="M28 24V25.3333C28 26.8 26.8 28 25.3333 28H6.66667C5.18667 28 4 26.8 4 25.3333V6.66667C4 5.2 5.18667 4 6.66667 4H25.3333C26.8 4 28 5.2 28 6.66667V8H16C14.52 8 13.3333 9.2 13.3333 10.6667V21.3333C13.3333 22.8 14.52 24 16 24H28ZM16 21.3333H29.3333V10.6667H16V21.3333ZM21.3333 18C20.2267 18 19.3333 17.1067 19.3333 16C19.3333 14.8933 20.2267 14 21.3333 14C22.44 14 23.3333 14.8933 23.3333 16C23.3333 17.1067 22.44 18 21.3333 18Z" fill="url(#paint0_radial_2217_5423)"/>
<defs>
<radialGradient id="paint0_radial_2217_5423" cx="0" cy="0" r="1" gradientUnits="userSpaceOnUse" gradientTransform="translate(23.0413 22.3673) rotate(-115.871) scale(26.3103 21.9112)">
<stop stop-color="#EBEDFF"/>
<stop offset="0.786458" stop-color="#FFF2E3"/>
<stop offset="1" stop-color="#FEFDF8"/>
</radialGradient>
</defs>
</svg>
